<svg width="28" height="24" viewBox="0 0 28 24" fill="none" xmlns="http://www.w3.org/2000/svg">
<path d="M24.2 0H3.19995C1.53495 0 0.199951 1.35 0.199951 3V21C0.199951 22.65 1.53495 24 3.19995 24H24.2C25.85 24 27.2 22.65 27.2 21V3C27.2 1.35 25.85 0 24.2 0ZM12.2 9.75C12.2 10.17 11.87 10.5 11.45 10.5H10.7C10.28 10.5 9.94995 10.17 9.94995 9.75H6.94995V14.25H9.94995C9.94995 13.83 10.28 13.5 10.7 13.5H11.45C11.87 13.5 12.2 13.83 12.2 14.25V15C12.2 15.825 11.525 16.5 10.7 16.5H6.19995C5.37495 16.5 4.69995 15.825 4.69995 15V9C4.69995 8.175 5.37495 7.5 6.19995 7.5H10.7C11.525 7.5 12.2 8.175 12.2 9V9.75ZM22.7 9.75C22.7 10.17 22.37 10.5 21.95 10.5H21.2C20.78 10.5 20.45 10.17 20.45 9.75H17.45V14.25H20.45C20.45 13.83 20.78 13.5 21.2 13.5H21.95C22.37 13.5 22.7 13.83 22.7 14.25V15C22.7 15.825 22.025 16.5 21.2 16.5H16.7C15.875 16.5 15.2 15.825 15.2 15V9C15.2 8.175 15.875 7.5 16.7 7.5H21.2C22.025 7.5 22.7 8.175 22.7 9V9.75Z" fill="white"/>
</svg>
