<svg width="25" height="24" viewBox="0 0 25 24" fill="none" xmlns="http://www.w3.org/2000/svg">
<path d="M2.25921 15.4286C1.31635 15.4286 0.544922 16.2 0.544922 17.1429V22.2857C0.544922 23.2286 1.31635 24 2.25921 24H7.40206C8.34492 24 9.11635 23.2286 9.11635 22.2857C9.11635 21.3429 8.34492 20.5714 7.40206 20.5714H3.97349V17.1429C3.97349 16.2 3.20206 15.4286 2.25921 15.4286ZM2.25921 8.57143C3.20206 8.57143 3.97349 7.8 3.97349 6.85714V3.42857H7.40206C8.34492 3.42857 9.11635 2.65714 9.11635 1.71429C9.11635 0.771429 8.34492 0 7.40206 0H2.25921C1.31635 0 0.544922 0.771429 0.544922 1.71429V6.85714C0.544922 7.8 1.31635 8.57143 2.25921 8.57143ZM21.1164 20.5714H17.6878C16.7449 20.5714 15.9735 21.3429 15.9735 22.2857C15.9735 23.2286 16.7449 24 17.6878 24H22.8306C23.7735 24 24.5449 23.2286 24.5449 22.2857V17.1429C24.5449 16.2 23.7735 15.4286 22.8306 15.4286C21.8878 15.4286 21.1164 16.2 21.1164 17.1429V20.5714ZM15.9735 1.71429C15.9735 2.65714 16.7449 3.42857 17.6878 3.42857H21.1164V6.85714C21.1164 7.8 21.8878 8.57143 22.8306 8.57143C23.7735 8.57143 24.5449 7.8 24.5449 6.85714V1.71429C24.5449 0.771429 23.7735 0 22.8306 0H17.6878C16.7449 0 15.9735 0.771429 15.9735 1.71429Z" fill="white"/>
</svg>
