<svg width="20" height="24" viewBox="0 0 20 24" fill="none" xmlns="http://www.w3.org/2000/svg">
<path fill-rule="evenodd" clip-rule="evenodd" d="M0.0120003 2.4C0.0120003 1.08 1.08 0 2.4 0H11.004C11.64 0 12.252 0.252 12.696 0.708L18.492 6.504C18.948 6.948 19.2 7.56 19.2 8.196V21.6C19.2 22.92 18.12 24 16.8 24H2.388C1.068 24 0 22.92 0 21.6L0.0120003 2.4ZM10.8 1.8V7.2C10.8 7.86 11.34 8.4 12 8.4H17.4L10.8 1.8ZM4.1 12.2C3.82386 12.2 3.6 12.4239 3.6 12.7C3.6 12.9761 3.82386 13.2 4.1 13.2H15.1C15.3761 13.2 15.6 12.9761 15.6 12.7C15.6 12.4239 15.3761 12.2 15.1 12.2H4.1ZM3.6 16.3C3.6 16.0239 3.82386 15.8 4.1 15.8H15.1C15.3761 15.8 15.6 16.0239 15.6 16.3C15.6 16.5761 15.3761 16.8 15.1 16.8H4.1C3.82386 16.8 3.6 16.5761 3.6 16.3ZM4.1 19.4C3.82386 19.4 3.6 19.6239 3.6 19.9C3.6 20.1761 3.82386 20.4 4.1 20.4H15.1C15.3761 20.4 15.6 20.1761 15.6 19.9C15.6 19.6239 15.3761 19.4 15.1 19.4H4.1Z" fill="white"/>
</svg>
