<svg width="24" height="24" viewBox="0 0 24 24" fill="none" xmlns="http://www.w3.org/2000/svg">
<path d="M20.7974 13.175C20.8475 12.8 20.8725 12.4125 20.8725 12C20.8725 11.6 20.8475 11.2 20.785 10.825L23.3225 8.85C23.5475 8.675 23.61 8.3375 23.4725 8.0875L21.0725 3.9375C20.9225 3.6625 20.61 3.575 20.335 3.6625L17.3474 4.8625C16.7224 4.3875 16.0599 3.9875 15.3225 3.6875L14.8724 0.5125C14.8224 0.2125 14.5725 0 14.2725 0H9.47245C9.17245 0 8.93495 0.2125 8.88495 0.5125L8.43495 3.6875C7.69745 3.9875 7.02245 4.4 6.40995 4.8625L3.42245 3.6625C3.14745 3.5625 2.83495 3.6625 2.68495 3.9375L0.297452 8.0875C0.147452 8.35 0.197451 8.675 0.447451 8.85L2.98495 10.825C2.92245 11.2 2.87245 11.6125 2.87245 12C2.87245 12.3875 2.89745 12.8 2.95995 13.175L0.422451 15.15C0.197451 15.325 0.134952 15.6625 0.272452 15.9125L2.67245 20.0625C2.82245 20.3375 3.13495 20.425 3.40995 20.3375L6.39745 19.1375C7.02245 19.6125 7.68495 20.0125 8.42245 20.3125L8.87245 23.4875C8.93495 23.7875 9.17245 24 9.47245 24H14.2725C14.5725 24 14.8225 23.7875 14.86 23.4875L15.3099 20.3125C16.0475 20.0125 16.7225 19.6125 17.335 19.1375L20.3225 20.3375C20.5975 20.4375 20.91 20.3375 21.06 20.0625L23.46 15.9125C23.61 15.6375 23.5474 15.325 23.3099 15.15L20.7974 13.175ZM11.8725 16.5C9.39745 16.5 7.37245 14.475 7.37245 12C7.37245 9.525 9.39745 7.5 11.8725 7.5C14.3475 7.5 16.3724 9.525 16.3724 12C16.3724 14.475 14.3475 16.5 11.8725 16.5Z" fill="white"/>
</svg>
